# xmcd CD database file
#
# Track frame offsets:
#	150
#	14949
#	27237
#	47982
#	74440
#	95693
#	108799
#	125602
#	150859
#	185103
#	208577
#
# Disc length: 2984 seconds
#
# Revision: 0
# Processed by: cddbd v1.5.2PL0 Copyright (c) Steve Scherf et al.
# Submitted via: CDex 1.51
#
DISCID=9c0ba60b
DTITLE=Lyle Lovett - 2012 Live From Celebrate Brooklyn [1|2]
DYEAR=2012
DGENRE=Blues
TTITLE0=Lyle Lovett - Intro
TTITLE1=Lyle Lovett - Release Me
TTITLE2=Lyle Lovett - White Boy Lost in The Blues
TTITLE3=Lyle Lovett - Isn't That So
TTITLE4=Lyle Lovett - Snake Song
TTITLE5=Lyle Lovett - Well All Right
TTITLE6=Lyle Lovett - Understand You
TTITLE7=Lyle Lovett - One Way Gal
TTITLE8=Lyle Lovett - Dress Of Laces
TTITLE9=Lyle Lovett - Remember Well
TTITLE10=Lyle Lovett - L.A. County
EXTD=YEAR: 2012
EXTT0=
EXTT1=
EXTT2=
EXTT3=
EXTT4=
EXTT5=
EXTT6=
EXTT7=
EXTT8=
EXTT9=
EXTT10=
PLAYORDER=
